
        <svg xmlns="http://www.w3.org/2000/svg" xmlns:xlink="http://www.w3.org/1999/xlink" version="1.1" width="3162.023315550287" height="507.80478166370284" viewBox="0 0 3162.023315550287 507.80478166370284">
			
			<g transform="scale(8.101165777514325) translate(10, 10)">
				<defs id="SvgjsDefs1208"/><g id="SvgjsG1209" featureKey="symbolFeature-0" transform="matrix(0.8892276422764228,0,0,0.8892276422764228,0,0)" fill="#000"><g xmlns="http://www.w3.org/2000/svg" transform="translate(0,-1004.3622)"><path style="color: ; font-style: normal; font-variant: normal; font-weight: normal; font-stretch: normal; font-size: medium; line-height: normal; font-family: sans-serif; text-indent: 0; text-align: start; text-decoration: none; text-decoration-line: none; text-decoration-style: solid; text-decoration-color: ; letter-spacing: normal; word-spacing: normal; text-transform: none; direction: ltr; block-progression: tb; writing-mode: lr-tb; baseline-shift: baseline; text-anchor: start; white-space: normal; clip-rule: nonzero; display: inline; overflow: visible; visibility: visible; opacity: 1; isolation: auto; mix-blend-mode: normal; color-interpolation: sRGB; color-interpolation-filters: linearRGB; solid-color: ; solid-opacity: 1; fill-opacity: 1; fill-rule: evenodd; stroke-width: 1.00000012px; stroke-linecap: round; stroke-linejoin: round; stroke-miterlimit: 4; stroke-dasharray: none; stroke-dashoffset: 0; stroke-opacity: 1; color-rendering: auto; image-rendering: auto; shape-rendering: auto; text-rendering: auto; enable-background: accumulate" d="M 24 0 C 10.751089 0 0 10.7511 0 24 C 0 37.2489 10.751089 48 24 48 C 37.248912 48 48 37.2489 48 24 C 48 10.7511 37.248912 0 24 0 z M 24 1 C 36.708472 1 47 11.2915 47 24 C 47 36.7085 36.708472 47 24 47 C 11.291529 47 1 36.7085 1 24 C 1 11.2915 11.291529 1 24 1 z M 37.484375 10 L 37.484375 10.003906 A 0.50005006 0.50005006 0 0 0 37.40625 10.013672 C 34.645759 10.026672 32.103332 10.5975 29.794922 11.5625 A 0.50005006 0.50005006 0 0 0 29.755859 11.578125 C 29.734359 11.588125 29.710913 11.592562 29.689453 11.601562 A 0.50005006 0.50005006 0 0 0 29.570312 11.673828 C 29.381156 11.762828 29.173263 11.870487 28.951172 11.992188 A 0.50005006 0.50005006 0 0 0 28.912109 12.009766 C 28.888109 12.021766 28.865747 12.036828 28.841797 12.048828 C 28.745457 12.101828 28.689518 12.129841 28.597656 12.181641 C 25.343196 13.894741 22.598356 16.307425 20.384766 19.015625 C 19.959354 18.837625 19.522426 18.704138 19.070312 18.648438 C 17.383631 18.440538 15.549008 19.050641 13.84375 20.244141 C 11.570073 21.835541 9.4653707 24.477147 8.0410156 27.810547 A 0.50005006 0.50005006 0 0 0 8.8066406 28.402344 C 10.870232 26.801744 12.474736 25.938928 13.597656 25.736328 C 14.159116 25.635028 14.587235 25.687322 14.945312 25.857422 C 15.254015 26.003822 15.525621 26.254606 15.773438 26.628906 C 15.709167 26.778306 15.629688 26.929225 15.568359 27.078125 A 0.50005006 0.50005006 0 0 0 15.677734 27.623047 L 16.751953 28.697266 C 15.81927 30.102766 14.858729 31.702694 13.820312 33.496094 C 13.818513 33.496094 13.816253 33.495659 13.814453 33.505859 A 0.50005006 0.50005006 0 0 0 13.802734 33.527344 A 0.50005006 0.50005006 0 0 0 13.796875 33.541016 A 0.50005006 0.50005006 0 0 0 13.792969 33.550781 A 0.50005006 0.50005006 0 0 0 13.777344 33.589844 A 0.50005006 0.50005006 0 0 0 13.773438 33.601562 A 0.50005006 0.50005006 0 0 0 13.763672 33.636719 A 0.50005006 0.50005006 0 0 0 13.753906 33.6875 A 0.50005006 0.50005006 0 0 0 13.75 33.714844 A 0.50005006 0.50005006 0 0 0 13.748047 33.736328 A 0.50005006 0.50005006 0 0 0 13.748047 33.748047 A 0.50005006 0.50005006 0 0 0 13.75 33.798828 A 0.50005006 0.50005006 0 0 0 13.753906 33.837891 A 0.50005006 0.50005006 0 0 0 13.755859 33.847656 A 0.50005006 0.50005006 0 0 0 13.767578 33.896484 A 0.50005006 0.50005006 0 0 0 13.783203 33.941406 A 0.50005006 0.50005006 0 0 0 13.798828 33.978516 A 0.50005006 0.50005006 0 0 0 13.820312 34.019531 A 0.50005006 0.50005006 0 0 0 13.822266 34.019531 A 0.50005006 0.50005006 0 0 0 13.828125 34.029297 A 0.50005006 0.50005006 0 0 0 13.851562 34.060547 A 0.50005006 0.50005006 0 0 0 13.857422 34.070312 A 0.50005006 0.50005006 0 0 0 13.884766 34.101562 A 0.50005006 0.50005006 0 0 0 13.910156 34.125 A 0.50005006 0.50005006 0 0 0 13.919922 34.136719 A 0.50005006 0.50005006 0 0 0 13.927734 34.148438 A 0.50005006 0.50005006 0 0 0 13.958984 34.169922 A 0.50005006 0.50005006 0 0 0 13.966797 34.179688 A 0.50005006 0.50005006 0 0 0 14.001953 34.203125 A 0.50005006 0.50005006 0 0 0 14.046875 34.226562 A 0.50005006 0.50005006 0 0 0 14.070312 34.236328 A 0.50005006 0.50005006 0 0 0 14.091797 34.246094 A 0.50005006 0.50005006 0 0 0 14.101562 34.246094 A 0.50005006 0.50005006 0 0 0 14.140625 34.255859 A 0.50005006 0.50005006 0 0 0 14.175781 34.265625 A 0.50005006 0.50005006 0 0 0 14.199219 34.265625 A 0.50005006 0.50005006 0 0 0 14.240234 34.265625 A 0.50005006 0.50005006 0 0 0 14.248047 34.265625 A 0.50005006 0.50005006 0 0 0 14.347656 34.255859 A 0.50005006 0.50005006 0 0 0 14.394531 34.244141 A 0.50005006 0.50005006 0 0 0 14.443359 34.226562 A 0.50005006 0.50005006 0 0 0 14.498047 34.199219 C 14.509657 34.189219 14.517697 34.186688 14.529297 34.179688 C 16.313379 33.144387 17.907581 32.185759 19.308594 31.255859 L 20.345703 32.292969 A 0.50005006 0.50005006 0 0 0 20.890625 32.402344 C 21.036669 32.342344 21.185424 32.264172 21.332031 32.201172 C 22.136126 32.727772 22.422568 33.343025 22.244141 34.390625 C 22.051072 35.524225 21.201005 37.137119 19.601562 39.199219 A 0.50005006 0.50005006 0 0 0 20.193359 39.964844 C 23.526829 38.540444 26.168364 36.435809 27.759766 34.162109 C 29.278547 31.992309 29.833479 29.616409 28.980469 27.599609 C 31.672503 25.422709 34.080663 22.731569 35.794922 19.542969 C 35.864422 19.421269 35.90693 19.340484 35.982422 19.208984 C 36.139815 18.934784 36.27749 18.677953 36.390625 18.439453 A 0.50005006 0.50005006 0 0 0 36.433594 18.359375 C 36.434391 18.359375 36.434747 18.359609 36.435547 18.349609 C 36.443947 18.330609 36.46101 18.305109 36.46875 18.287109 A 0.50005006 0.50005006 0 0 0 36.501953 18.169922 C 37.45957 15.847222 38.000023 13.2637 38 10.5 A 0.50005006 0.50005006 0 0 0 37.498047 10 A 0.50005006 0.50005006 0 0 0 37.496094 10 A 0.50005006 0.50005006 0 0 0 37.484375 10 z M 36.945312 11.060547 C 36.883952 13.237847 36.464654 15.272938 35.769531 17.148438 L 30.886719 12.267578 C 32.760213 11.564178 34.772547 11.125247 36.945312 11.060547 z M 29.800781 12.685547 L 35.359375 18.255859 C 35.315165 18.340859 35.262455 18.437397 35.212891 18.529297 A 0.50005006 0.50005006 0 0 0 35.210938 18.529297 A 0.50005006 0.50005006 0 0 0 35.166016 18.603516 C 35.080466 18.772216 34.984226 18.933609 34.894531 19.099609 C 34.798661 19.266909 34.689245 19.453384 34.623047 19.583984 A 0.50049853 0.50049853 0 0 0 34.597656 19.644531 C 31.395881 25.191831 25.922383 29.158178 20.798828 31.330078 L 20.144531 30.675781 C 20.982982 30.087681 21.764349 29.504975 22.412109 28.921875 C 24.290769 27.230675 25.356309 25.432359 25.119141 23.380859 A 0.50005006 0.50005006 0 0 0 25.095703 23.273438 L 25.085938 23.25 A 0.50005006 0.50005006 0 0 0 24.873047 22.986328 L 24.833984 22.964844 A 0.50005006 0.50005006 0 0 0 24.632812 22.894531 L 24.632812 22.884766 C 22.581387 22.647466 20.779962 23.713797 19.087891 25.591797 C 18.50316 26.240797 17.919299 27.023181 17.330078 27.863281 L 16.638672 27.171875 C 18.808148 22.057375 22.765515 16.668909 28.308594 13.474609 A 0.50007273 0.50007273 0 0 0 28.373047 13.447266 C 28.742664 13.259766 29.371574 12.906947 29.800781 12.685547 z M 28.537109 16.998047 C 27.903135 16.998047 27.267592 17.23825 26.787109 17.71875 C 25.826143 18.67975 25.828028 20.253844 26.789062 21.214844 C 27.750028 22.175844 29.322238 22.175844 30.283203 21.214844 C 31.244168 20.253844 31.246053 18.67975 30.285156 17.71875 C 29.80458 17.23825 29.171084 16.998047 28.537109 16.998047 z M 28.537109 17.992188 C 28.913068 17.992188 29.288717 18.136381 29.578125 18.425781 C 30.156941 19.004581 30.155056 19.929012 29.576172 20.507812 C 28.997356 21.086613 28.074911 21.086613 27.496094 20.507812 C 26.917278 19.929012 26.915393 19.004581 27.494141 18.425781 C 27.783549 18.136381 28.161151 17.992188 28.537109 17.992188 z M 18.050781 19.644531 C 18.596936 19.654531 19.109056 19.798231 19.615234 19.957031 C 19.451512 20.179931 19.293346 20.414831 19.132812 20.644531 C 19.120503 20.661531 19.109926 20.679266 19.097656 20.697266 C 18.707074 21.258166 18.324682 21.835953 17.957031 22.439453 C 17.647413 22.940953 17.364411 23.444272 17.087891 23.951172 C 17.039111 24.042172 16.98958 24.129203 16.941406 24.220703 C 16.6704 24.728803 16.417205 25.233988 16.179688 25.742188 C 15.923644 25.458687 15.70782 25.112878 15.375 24.955078 C 14.80134 24.683078 14.134298 24.625006 13.419922 24.753906 C 12.448143 24.929206 11.294349 25.548387 10.03125 26.367188 C 11.295623 24.124887 12.786858 22.204753 14.416016 21.064453 C 15.457696 20.335353 16.501748 19.870506 17.492188 19.691406 C 17.682816 19.657406 17.86873 19.642531 18.050781 19.644531 z M 24.033203 23.972656 C 24.020393 25.421556 23.323376 26.748475 21.742188 28.171875 C 20.323853 29.448675 18.186654 30.806484 15.732422 32.271484 C 17.19626 29.815884 18.552687 27.677566 19.830078 26.259766 C 21.254637 24.678666 22.583055 23.984456 24.033203 23.972656 z M 28.048828 28.380859 C 28.539213 29.934259 28.234354 31.740691 26.941406 33.587891 C 25.799395 35.219491 23.874111 36.713216 21.626953 37.978516 C 22.446365 36.705616 23.063177 35.540794 23.230469 34.558594 C 23.423682 33.424294 22.967549 32.510675 22.216797 31.796875 C 22.741945 31.552375 23.264855 31.291719 23.791016 31.011719 C 23.816956 30.997719 23.841317 30.983703 23.867188 30.970703 C 24.33118 30.722203 24.795003 30.481078 25.255859 30.205078 C 26.242504 29.629378 27.172343 29.019059 28.048828 28.380859 z M 14.822266 30.810547 L 10.921875 34.712891 L 11.394531 35.1875 L 13.462891 33.119141 C 13.928982 32.315141 14.381076 31.542447 14.822266 30.810547 z M 17.15625 33.214844 C 16.42381 33.656544 15.651498 34.109372 14.847656 34.576172 L 12.341797 37.082031 L 12.816406 37.554688 L 17.15625 33.214844 z M 13.339844 34.189453 L 10.447266 37.082031 L 10.921875 37.554688 L 13.814453 34.662109 C 13.801973 34.662109 13.789224 34.652484 13.777344 34.646484 A 0.50005006 0.50005006 0 0 1 13.765625 34.636719 C 13.749745 34.626719 13.73411 34.617422 13.71875 34.607422 L 13.724609 34.617188 C 13.705989 34.606188 13.687752 34.593078 13.669922 34.580078 C 13.648472 34.565078 13.627612 34.54825 13.607422 34.53125 A 0.50005006 0.50005006 0 0 1 13.595703 34.519531 A 0.50005006 0.50005006 0 0 1 13.572266 34.498047 A 0.50005006 0.50005006 0 0 1 13.566406 34.498047 A 0.50005006 0.50005006 0 0 0 13.564453 34.498047 A 0.50005006 0.50005006 0 0 1 13.558594 34.488281 C 13.551594 34.478281 13.543919 34.47875 13.537109 34.46875 A 0.50005006 0.50005006 0 0 1 13.529297 34.457031 C 13.520897 34.447031 13.511986 34.443594 13.503906 34.433594 C 13.489036 34.417594 13.474708 34.401766 13.460938 34.384766 A 0.50005006 0.50005006 0 0 1 13.457031 34.373047 C 13.439391 34.351047 13.425766 34.326734 13.410156 34.302734 A 0.50005006 0.50005006 0 0 1 13.349609 34.207031 C 13.346709 34.197031 13.342744 34.194453 13.339844 34.189453 z M 10.447266 35.1875 L 9.9726562 35.660156 L 10.447266 36.134766 L 10.919922 35.660156 L 10.447266 35.1875 z M 9.9726562 37.554688 L 9.5 38.029297 L 9.9726562 38.501953 L 10.447266 38.029297 L 9.9726562 37.554688 z M 11.867188 37.554688 L 11.394531 38.029297 L 11.867188 38.501953 L 12.341797 38.029297 L 11.867188 37.554688 z " transform="translate(0,1004.3622)" stroke="none"/></g></g><g id="SvgjsG1210" featureKey="nameFeature-0" transform="matrix(0.6334566710606493,0,0,0.6334566710606493,61.73308695993438,4.979577149083079)" fill="#000"><path d="M8.48 40 c-0.28 0 -0.48 -0.24 -0.48 -0.52 l0 -18.88 l-5.48 0 c-0.28 0 -0.52 -0.2 -0.52 -0.48 l0 -4.6 c0 -0.28 0.24 -0.52 0.52 -0.52 l17.16 0 c0.32 0 0.52 0.24 0.52 0.52 l0 4.6 c0 0.28 -0.2 0.48 -0.52 0.48 l-5.48 0 l0 18.88 c0 0.28 -0.24 0.52 -0.52 0.52 l-5.2 0 z M29.879 40 c-0.28 0 -0.52 -0.24 -0.52 -0.52 l0 -23.96 c0 -0.28 0.24 -0.52 0.52 -0.52 l5.2 0 c0.28 0 0.52 0.24 0.52 0.52 l0 23.96 c0 0.28 -0.24 0.52 -0.52 0.52 l-5.2 0 z M45.278 40 c-0.28 0 -0.52 -0.24 -0.52 -0.52 l0 -23.96 c0 -0.28 0.24 -0.52 0.52 -0.52 l5.2 0 c0.28 0 0.52 0.24 0.52 0.52 l0 18.72 l9 0 c0.28 0 0.52 0.24 0.52 0.52 l0 4.72 c0 0.28 -0.24 0.52 -0.52 0.52 l-14.72 0 z M70.197 40 c-0.28 0 -0.52 -0.24 -0.52 -0.52 l0 -23.96 c0 -0.28 0.24 -0.52 0.52 -0.52 l5.2 0 c0.28 0 0.52 0.24 0.52 0.52 l0 18.72 l9 0 c0.28 0 0.52 0.24 0.52 0.52 l0 4.72 c0 0.28 -0.24 0.52 -0.52 0.52 l-14.72 0 z M95.116 40 c-0.28 0 -0.52 -0.24 -0.52 -0.52 l0 -23.96 c0 -0.28 0.24 -0.52 0.52 -0.52 l5.2 0 c0.28 0 0.52 0.24 0.52 0.52 l0 9.84 l9.04 0 l0 -9.84 c0 -0.28 0.24 -0.52 0.52 -0.52 l5.2 0 c0.28 0 0.52 0.24 0.52 0.52 l0 23.96 c0 0.28 -0.24 0.52 -0.52 0.52 l-5.2 0 c-0.28 0 -0.52 -0.24 -0.52 -0.52 l0 -8.6 l-9.04 0 l0 8.6 c0 0.28 -0.24 0.52 -0.52 0.52 l-5.2 0 z M138.155 40 c-2.4 0 -4.6 -0.56 -6.52 -1.68 c-1.96 -1.12 -3.52 -2.72 -4.68 -4.64 c-1.12 -1.96 -1.68 -4.2 -1.68 -6.6 c0 -2.36 0.56 -4.56 1.68 -6.52 c1.16 -1.96 2.68 -3.52 4.64 -4.64 s4.16 -1.68 6.56 -1.68 c2.36 0 4.56 0.56 6.52 1.68 s3.52 2.68 4.64 4.64 c1.16 1.96 1.72 4.16 1.72 6.52 c0 2.4 -0.56 4.6 -1.72 6.56 c-1.12 1.96 -2.68 3.52 -4.64 4.68 c-1.96 1.12 -4.16 1.68 -6.52 1.68 z M138.235 34.24 c1.16 0 2.24 -0.32 3.2 -0.92 c1 -0.64 1.8 -1.48 2.36 -2.6 c0.6 -1.08 0.88 -2.32 0.88 -3.64 c0 -1.28 -0.28 -2.52 -0.88 -3.6 c-0.56 -1.08 -1.36 -1.92 -2.36 -2.56 c-0.96 -0.6 -2.04 -0.92 -3.2 -0.92 c-1.2 0 -2.28 0.32 -3.28 0.92 c-1.04 0.64 -1.84 1.48 -2.44 2.56 c-0.6 1.12 -0.88 2.32 -0.88 3.6 c0 1.32 0.28 2.56 0.88 3.64 c0.64 1.08 1.44 1.96 2.44 2.56 c1 0.64 2.08 0.96 3.28 0.96 z M170.634 40 c-2.16 0 -3.72 -0.44 -5.36 -1.32 c-1.6 -0.88 -2.88 -2.12 -3.76 -3.76 c-0.88 -1.6 -1.32 -3.52 -1.32 -5.72 l0 -14.08 c0 -0.28 0.24 -0.48 0.52 -0.48 l5.2 0 c0.28 0 0.48 0.2 0.48 0.48 l0 14.08 c0 1.6 0.44 2.84 1.28 3.72 s1.6 1.32 3 1.32 s2.12 -0.44 2.92 -1.28 c0.8 -0.88 1.2 -2.16 1.2 -3.76 l0 -14.08 c0 -0.28 0.24 -0.48 0.52 -0.48 l5.2 0 c0.28 0 0.52 0.2 0.52 0.48 l0 14.08 c0 2.2 -0.44 4.12 -1.32 5.72 c-0.84 1.64 -2.12 2.88 -3.72 3.76 s-3.2 1.32 -5.36 1.32 z M200.873 40.24 c-1.92 0 -3.84 -0.36 -5.68 -1.08 c-1.84 -0.68 -3.48 -1.68 -4.84 -2.88 c-0.16 -0.16 -0.2 -0.4 -0.12 -0.6 l1.4 -4.76 c0.08 -0.16 0.2 -0.28 0.36 -0.28 c0.16 -0.04 0.32 0 0.44 0.12 c2.12 2 4.52 3.8 7.52 3.96 c0.8 0.04 1.68 0.08 2.44 -0.16 c2.36 -0.76 1.36 -3.16 -0.4 -3.88 c-0.6 -0.24 -1.44 -0.52 -2.52 -0.84 c-1.6 -0.44 -2.92 -0.92 -3.92 -1.4 c-1.08 -0.48 -2 -1.24 -2.8 -2.24 c-0.76 -1.04 -1.16 -2.4 -1.16 -4.04 c0 -1.56 0.4 -2.92 1.2 -4.08 s1.92 -2.08 3.32 -2.68 s3.04 -0.92 4.88 -0.92 c1.64 0 3.24 0.24 4.84 0.76 c1.56 0.48 2.96 1.16 4.2 1.96 c0.2 0.16 0.28 0.4 0.16 0.64 l-1.32 4.48 c-0.04 0.16 -0.16 0.24 -0.32 0.28 c-0.12 0.04 -0.28 0.04 -0.4 -0.04 c-1.8 -1.12 -3.6 -2.48 -5.72 -2.76 c-1.4 -0.2 -3.52 -0.12 -4 1.56 c-0.6 2.16 2.56 2.72 4 3.16 c1.6 0.48 2.92 0.96 3.96 1.44 c1.08 0.52 2.04 1.32 2.8 2.32 c0.8 1.04 1.2 2.44 1.2 4.12 c0 1.64 -0.44 3.04 -1.28 4.24 c-0.8 1.2 -1.96 2.08 -3.4 2.72 c-1.44 0.56 -3.04 0.88 -4.84 0.88 z M219.552 40 l0 -23.96 c0 -1 0.2 -1.2 0.52 -1.2 l17.52 0 c0.28 0 0.52 0.2 0.52 0.48 l0 4.52 c0 0.28 -0.24 0.52 -0.52 0.52 l-11.84 0 l0 4.16 l7.48 0 c0.28 0 0.52 0.24 0.52 0.52 l0 4.48 c0 0.28 -0.24 0.52 -0.52 0.52 l-7.48 0 l0 4.28 l11.8 0 c0.28 0 0.52 0.24 0.52 0.52 l0 4.48 c0 0.28 -0.24 0.52 -0.52 0.52 l-17.48 0 c-0.32 0 -0.52 -0.24 -0.52 0.16 z M271.75 40 c-0.2 0 -0.4 -0.12 -0.48 -0.32 l-8 -24 c-0.08 -0.16 -0.04 -0.32 0.04 -0.48 c0.12 -0.12 0.28 -0.2 0.44 -0.2 l5.6 0 c0.2 0 0.4 0.12 0.48 0.36 l4.76 15.64 l4.8 -15.64 c0.08 -0.24 0.28 -0.36 0.48 -0.36 l5.36 0 c0.16 0 0.32 0.08 0.44 0.2 c0.08 0.16 0.12 0.32 0.04 0.48 l-8.12 24 c-0.08 0.2 -0.24 0.32 -0.48 0.32 l-5.36 0 z M294.909 40 l0 -23.96 c0 -1 0.2 -1.2 0.52 -1.2 l17.52 0 c0.28 0 0.52 0.2 0.52 0.48 l0 4.52 c0 0.28 -0.24 0.52 -0.52 0.52 l-11.84 0 l0 4.16 l7.48 0 c0.28 0 0.52 0.24 0.52 0.52 l0 4.48 c0 0.28 -0.24 0.52 -0.52 0.52 l-7.48 0 l0 4.28 l11.8 0 c0.28 0 0.52 0.24 0.52 0.52 l0 4.48 c0 0.28 -0.24 0.52 -0.52 0.52 l-17.48 0 c-0.32 0 -0.52 -0.24 -0.52 0.16 z M323.148 40 c-0.28 0 -0.52 -0.24 -0.52 -0.52 l0 -23.96 c0 -0.28 0.24 -0.52 0.52 -0.52 l4.72 0 c0.16 0 0.32 0.08 0.44 0.2 l9.2 14.2 l0 -13.88 c0 -0.28 0.24 -0.52 0.52 -0.52 l4.92 0 c0.28 0 0.52 0.24 0.52 0.52 l0 23.96 c0 0.28 -0.24 0.52 -0.52 0.52 l-4.72 0 c-0.16 0 -0.32 -0.08 -0.44 -0.2 l-9.16 -14.12 l0 13.8 c0 0.28 -0.24 0.52 -0.52 0.52 l-4.96 0 z M359.107 40 c-0.28 0 -0.48 -0.24 -0.48 -0.52 l0 -18.88 l-5.48 0 c-0.28 0 -0.52 -0.2 -0.52 -0.48 l0 -4.6 c0 -0.28 0.24 -0.52 0.52 -0.52 l17.16 0 c0.32 0 0.52 0.24 0.52 0.52 l0 4.6 c0 0.28 -0.2 0.48 -0.52 0.48 l-5.48 0 l0 18.88 c0 0.28 -0.24 0.52 -0.52 0.52 l-5.2 0 z M390.426 40 c-2.16 0 -3.72 -0.44 -5.36 -1.32 c-1.6 -0.88 -2.88 -2.12 -3.76 -3.76 c-0.88 -1.6 -1.32 -3.52 -1.32 -5.72 l0 -14.08 c0 -0.28 0.24 -0.48 0.52 -0.48 l5.2 0 c0.28 0 0.48 0.2 0.48 0.48 l0 14.08 c0 1.6 0.44 2.84 1.28 3.72 s1.6 1.32 3 1.32 s2.12 -0.44 2.92 -1.28 c0.8 -0.88 1.2 -2.16 1.2 -3.76 l0 -14.08 c0 -0.28 0.24 -0.48 0.52 -0.48 l5.2 0 c0.28 0 0.52 0.2 0.52 0.48 l0 14.08 c0 2.2 -0.44 4.12 -1.32 5.72 c-0.84 1.64 -2.12 2.88 -3.72 3.76 s-3.2 1.32 -5.36 1.32 z M410.505 40 c-0.32 0 -0.52 -0.24 -0.52 -0.52 l0 -23.96 c0 -0.28 0.2 -0.52 0.52 -0.52 l9.76 0 c3.04 0 5.44 0.76 7.12 2.32 c2.48 2.24 3.32 6.48 2.12 9.6 c-0.44 1.12 -1.2 2.16 -2.16 2.92 c-0.56 0.44 -1.16 0.76 -1.76 1.08 c1.72 2.72 4.32 8.24 4.32 8.24 c0.04 0.08 0.12 0.2 0.12 0.32 c0 0.28 -0.24 0.52 -0.52 0.52 l-5.92 0 c-0.16 0 -0.36 -0.12 -0.44 -0.28 l-3.48 -7.64 c-1.24 0.08 -2.2 0.04 -3.48 0.04 l0 7.36 c0 0.28 -0.24 0.52 -0.52 0.52 l-5.16 0 z M416.185 26.56 c0 0 5.04 0.56 6.8 -0.6 c0.68 -0.44 1.08 -1.52 1.08 -2.32 c-0.04 -0.88 -0.48 -1.8 -1.2 -2.36 c-0.76 -0.64 -2.64 -0.84 -3.6 -0.84 l-3.08 0.08 l0 6.04 z M439.224 40 l0 -23.96 c0 -1 0.2 -1.2 0.52 -1.2 l17.52 0 c0.28 0 0.52 0.2 0.52 0.48 l0 4.52 c0 0.28 -0.24 0.52 -0.52 0.52 l-11.84 0 l0 4.16 l7.48 0 c0.28 0 0.52 0.24 0.52 0.52 l0 4.48 c0 0.28 -0.24 0.52 -0.52 0.52 l-7.48 0 l0 4.28 l11.8 0 c0.28 0 0.52 0.24 0.52 0.52 l0 4.48 c0 0.28 -0.24 0.52 -0.52 0.52 l-17.48 0 c-0.32 0 -0.52 -0.24 -0.52 0.16 z M477.623 40.24 c-1.92 0 -3.84 -0.36 -5.68 -1.08 c-1.84 -0.68 -3.48 -1.68 -4.84 -2.88 c-0.16 -0.16 -0.2 -0.4 -0.12 -0.6 l1.4 -4.76 c0.08 -0.16 0.2 -0.28 0.36 -0.28 c0.16 -0.04 0.32 0 0.44 0.12 c2.12 2 4.52 3.8 7.52 3.96 c0.8 0.04 1.68 0.08 2.44 -0.16 c2.36 -0.76 1.36 -3.16 -0.4 -3.88 c-0.6 -0.24 -1.44 -0.52 -2.52 -0.84 c-1.6 -0.44 -2.92 -0.92 -3.92 -1.4 c-1.08 -0.48 -2 -1.24 -2.8 -2.24 c-0.76 -1.04 -1.16 -2.4 -1.16 -4.04 c0 -1.56 0.4 -2.92 1.2 -4.08 s1.92 -2.08 3.32 -2.68 s3.04 -0.92 4.88 -0.92 c1.64 0 3.24 0.24 4.84 0.76 c1.56 0.48 2.96 1.16 4.2 1.96 c0.2 0.16 0.28 0.4 0.16 0.64 l-1.32 4.48 c-0.04 0.16 -0.16 0.24 -0.32 0.28 c-0.12 0.04 -0.28 0.04 -0.4 -0.04 c-1.8 -1.12 -3.6 -2.48 -5.72 -2.76 c-1.4 -0.2 -3.52 -0.12 -4 1.56 c-0.6 2.16 2.56 2.72 4 3.16 c1.6 0.48 2.92 0.96 3.96 1.44 c1.08 0.52 2.04 1.32 2.8 2.32 c0.8 1.04 1.2 2.44 1.2 4.12 c0 1.64 -0.44 3.04 -1.28 4.24 c-0.8 1.2 -1.96 2.08 -3.4 2.72 c-1.44 0.56 -3.04 0.88 -4.84 0.88 z"/></g>
			</g>
		</svg>
	